<?xml version="1.0" encoding="UTF-8" standalone="no"?>
<!DOCTYPE svg PUBLIC "-//W3C//DTD SVG 1.1//EN" "http://www.w3.org/Graphics/SVG/1.1/DTD/svg11.dtd">
<svg width="100%" height="100%" viewBox="0 0 172 172" version="1.1" xmlns="http://www.w3.org/2000/svg" xmlns:xlink="http://www.w3.org/1999/xlink" xml:space="preserve" xmlns:serif="http://www.serif.com/" style="fill-rule:evenodd;clip-rule:evenodd;stroke-linecap:round;stroke-linejoin:round;stroke-miterlimit:1.5;">
    <g transform="matrix(1,0,0,1,-580,-4)">
        <g transform="matrix(1.075,0,0,1.01176,47.875,-220.612)">
            <rect id="right-branch-board" x="495" y="222" width="160" height="170" style="fill:none;"/>
            <g id="right-branch-board1" serif:id="right-branch-board">
                <g id="right-branch" transform="matrix(0.930233,0,0,0.988372,-187.791,-598.349)">
                    <g>
                        <g id="right-branch-link" transform="matrix(1,0,0,1,4,0)">
                            <path d="M804.861,936.292C801.515,939.638 800.423,944.625 802.065,949.062C803.321,952.472 804,956.157 804,960C804,977.661 789.661,992 772,992C754.339,992 740,977.661 740,960C740,942.339 754.339,928 772,928C774.942,928 777.792,928.398 780.499,929.143C784.705,930.314 789.216,929.129 792.303,926.042C800.932,917.433 817.433,900.932 826.052,892.313C829.143,889.222 830.329,884.706 829.156,880.495C828.398,877.792 828,874.942 828,872C828,854.339 842.339,840 860,840C877.661,840 892,854.339 892,872C892,889.661 877.661,904 860,904C856.157,904 852.472,903.321 849.058,902.077C844.625,900.438 839.644,901.529 836.302,904.871C827.971,913.182 813.182,927.971 804.861,936.292Z" style="fill:rgb(124,31,14);"/>
                        </g>
                        <g id="bottom-circle" transform="matrix(1,0,0,0.989796,48,-14.7041)">
                            <circle cx="728.5" cy="984.5" r="24.5" style="fill:rgb(209,209,209);"/>
                        </g>
                        <g transform="matrix(1,0,0,1,8.75,-0.5)">
                            <path d="M768,952L768,968" style="fill:none;stroke:white;stroke-opacity:0.45;stroke-width:1px;"/>
                            <path d="M776,960L760,960.25" style="fill:none;stroke:white;stroke-opacity:0.45;stroke-width:1px;"/>
                        </g>
                        <g transform="matrix(1,0,0,1,72.5,-0.5)">
                            <g transform="matrix(8,0,0,8,724.037,962.865)">
                            </g>
                            <text x="684.463px" y="962.865px" style="font-family:'ArialMT', 'Arial', sans-serif;font-size:8px;">bottom text</text>
                        </g>
                        <g id="top-circle" transform="matrix(0.979592,0,0,0.979592,150.367,-92.4082)">
                            <circle cx="728.5" cy="984.5" r="24.5" style="fill:rgb(209,209,209);"/>
                        </g>
                        <g transform="matrix(1,0,0,1,96,-88)">
                            <path d="M768,952L768,968" style="fill:none;stroke:white;stroke-opacity:0.45;stroke-width:1px;"/>
                            <path d="M776,960L760,960.25" style="fill:none;stroke:white;stroke-opacity:0.45;stroke-width:1px;"/>
                        </g>
                        <g transform="matrix(1,0,0,1,160,-88)">
                            <g transform="matrix(8,0,0,8,717.369,962.865)">
                            </g>
                            <text x="691.131px" y="962.865px" style="font-family:'ArialMT', 'Arial', sans-serif;font-size:8px;">top text</text>
                        </g>
                    </g>
                </g>
            </g>
        </g>
    </g>
</svg>
