<?xml version="1.0" encoding="UTF-8" standalone="no"?>
<!DOCTYPE svg PUBLIC "-//W3C//DTD SVG 1.1//EN" "http://www.w3.org/Graphics/SVG/1.1/DTD/svg11.dtd">
<svg width="100%" height="100%" viewBox="0 0 214 87" version="1.1" xmlns="http://www.w3.org/2000/svg" xmlns:xlink="http://www.w3.org/1999/xlink" xml:space="preserve" xmlns:serif="http://www.serif.com/" style="fill-rule:evenodd;clip-rule:evenodd;stroke-linecap:round;stroke-linejoin:round;stroke-miterlimit:1.5;">
    <g transform="matrix(1,0,0,1,-399.311,-254.671)">
        <g transform="matrix(1.45154,0,0,1.23832,-209.826,-66.7077)">
            <rect id="Kicking-Redux" serif:id="Kicking Redux" x="419.648" y="259.528" width="146.853" height="69.77" style="fill:none;"/>
            <g id="Kicking-Redux1" serif:id="Kicking Redux">
                <g transform="matrix(1.62416,0,0,1.17529,-395.104,-9.62293)">
                    <path d="M544.223,247.652C539.325,257.317 534.939,264.144 534.939,264.144C534.939,264.144 543.677,262.728 548.65,264.903C553.849,267.177 554.323,273.252 554.323,273.252C554.323,273.252 559.479,268.061 566.574,266.499C572.098,265.284 578.936,269.682 578.936,269.682C578.936,269.682 576.025,262.043 577.498,257.654C579.893,250.52 582.853,244.102 582.853,244.102C582.853,244.102 577.95,246.471 573.167,244.018C567.594,241.158 567.884,231.643 567.884,231.643C567.884,231.643 563.932,235.673 558.858,236.324C552.694,237.115 546.129,231.423 546.129,231.423C546.129,231.423 546.551,243.061 544.223,247.652Z" style="fill:rgb(255,171,251);"/>
                </g>
                <g transform="matrix(1.10308,0,0,1.30402,-49.8496,-95.631)">
                    <g transform="matrix(1,0,0,1,0,0.528)">
                        <path d="M435.28,304.36L435.28,296.296L437.008,296.296C438.352,296.296 439.32,296.6 439.912,297.208C440.504,297.816 440.8,298.84 440.8,300.28C440.8,301.496 440.496,302.48 439.888,303.232C439.28,303.984 438.336,304.36 437.056,304.36L435.28,304.36ZM426.352,289.864L426.352,324.136L435.28,324.136L435.28,310.408L437.632,310.408C438.176,310.408 438.632,310.48 439,310.624C439.368,310.768 439.672,311.024 439.912,311.392C440.152,311.76 440.32,312.264 440.416,312.904C440.512,313.544 440.56,314.344 440.56,315.304L440.56,317.608C440.56,317.96 440.568,318.416 440.584,318.976C440.6,319.536 440.632,320.12 440.68,320.728C440.728,321.336 440.808,321.944 440.92,322.552C441.032,323.16 441.2,323.688 441.424,324.136L450.928,324.136L450.928,323.656C450.64,323.496 450.432,323.328 450.304,323.152C450.176,322.976 450.048,322.792 449.92,322.6C449.824,322.408 449.744,322.136 449.68,321.784C449.616,321.432 449.568,321.04 449.536,320.608C449.504,320.176 449.488,319.72 449.488,319.24L449.488,314.92C449.488,312.616 449.088,310.808 448.288,309.496C447.488,308.184 446.016,307.432 443.872,307.24L443.872,307.144C445.92,306.824 447.408,305.96 448.336,304.552C449.264,303.144 449.728,301.288 449.728,298.984C449.728,297.672 449.56,296.456 449.224,295.336C448.888,294.216 448.344,293.248 447.592,292.432C446.84,291.616 445.864,290.984 444.664,290.536C443.464,290.088 442.016,289.864 440.32,289.864L426.352,289.864Z" style="fill-rule:nonzero;"/>
                    </g>
                    <g transform="matrix(1,0,0,1,0,0.528)">
                        <path d="M453.904,289.864L453.904,324.136L474.64,324.136L474.64,316.84L462.832,316.84L462.832,310.024L473.488,310.024L473.488,303.016L462.832,303.016L462.832,297.16L474.208,297.16L474.208,289.864L453.904,289.864Z" style="fill-rule:nonzero;"/>
                    </g>
                    <g transform="matrix(1,0,0,1,0,0.528)">
                        <path d="M477.904,289.864L477.904,324.136L490.864,324.136C493.456,324.136 495.472,323.664 496.912,322.72C498.352,321.776 499.432,320.512 500.152,318.928C500.872,317.344 501.312,315.52 501.472,313.456C501.632,311.392 501.712,309.24 501.712,307C501.712,304.76 501.632,302.608 501.472,300.544C501.312,298.48 500.872,296.656 500.152,295.072C499.432,293.488 498.352,292.224 496.912,291.28C495.472,290.336 493.456,289.864 490.864,289.864L477.904,289.864ZM486.832,317.704L486.832,296.296L488.608,296.296C489.472,296.296 490.16,296.416 490.672,296.656C491.184,296.896 491.576,297.4 491.848,298.168C492.12,298.936 492.296,300.024 492.376,301.432C492.456,302.84 492.496,304.696 492.496,307C492.496,309.304 492.456,311.16 492.376,312.568C492.296,313.976 492.12,315.064 491.848,315.832C491.576,316.6 491.184,317.104 490.672,317.344C490.16,317.584 489.472,317.704 488.608,317.704L486.832,317.704Z" style="fill-rule:nonzero;"/>
                    </g>
                    <g transform="matrix(1,0,0,-1,0,614.528)">
                        <path d="M514,289.864L505.072,289.864L505.072,312.328C505.072,314.728 505.328,316.728 505.84,318.328C506.352,319.928 507.096,321.208 508.072,322.168C509.048,323.128 510.264,323.784 511.72,324.136C513.176,324.488 514.832,324.664 516.688,324.664C518.576,324.664 520.24,324.488 521.68,324.136C523.12,323.784 524.328,323.128 525.304,322.168C526.28,321.208 527.024,319.928 527.536,318.328C528.048,316.728 528.304,314.728 528.304,312.328L528.304,289.864L519.376,289.864L519.376,314.584C519.376,316.248 519.136,317.36 518.656,317.92C518.176,318.48 517.52,318.76 516.688,318.76C515.856,318.76 515.2,318.48 514.72,317.92C514.24,317.36 514,316.248 514,314.584L514,289.864Z" style="fill-rule:nonzero;"/>
                    </g>
                    <g transform="matrix(1,0,0,1,0,0.528)">
                        <path d="M530.032,289.864L537.568,306.76L529.6,324.136L539.44,324.136L542.848,313.816L542.944,313.816L546.352,324.136L556.336,324.136L548.32,306.76L555.76,289.864L545.776,289.864L542.944,299.8L542.848,299.8L540.016,289.864L530.032,289.864Z" style="fill-rule:nonzero;"/>
                    </g>
                </g>
                <g transform="matrix(0.515677,-0.65467,0.553786,0.609618,87.6918,503.46)">
                    <g transform="matrix(1,0,0,1,9.23124,-9.96513)">
                        <path d="M533,262C533,262 536.933,264.563 539.335,264C542.621,263.23 546.9,262.992 548.934,264C551.85,265.446 552.356,266.624 552,269.309C551.853,270.417 550.42,272.512 550.42,272.512L551.39,272L552,274C552,274 545.585,276.227 541,276C531.085,275.508 528,274 528,274L528,276L520,275.174C520,275.174 519.768,273.679 520,271C519,268 518.83,267.31 518.83,265.31C518.83,264.31 520,261.428 520,261.428C520,261.428 522.015,263.39 527,263C530.553,262.722 533,262 533,262Z" style="fill:none;stroke:white;stroke-width:0.91px;"/>
                        <path d="M533,262C533,262 536.933,264.563 539.335,264C542.621,263.23 546.9,262.992 548.934,264C551.85,265.446 552.356,266.624 552,269.309C551.853,270.417 550.42,272.512 550.42,272.512L551.39,272L552,274C552,274 545.585,276.227 541,276C531.085,275.508 528,274 528,274L528,276L520,275.174C520,275.174 519.768,273.679 520,271C519,268 518.83,267.31 518.83,265.31C518.83,264.31 520,261.428 520,261.428C520,261.428 522.015,263.39 527,263C530.553,262.722 533,262 533,262Z"/>
                    </g>
                    <g transform="matrix(1,0,0,1,9.72859,-6.1755)">
                        <path d="M536,258.055C536,258.055 536.136,259.114 528,259.611C519.864,260.108 517.289,257.966 517.289,257.966C517.289,257.966 514.056,246.372 517.076,242.731C520.096,239.089 518.837,236.821 520,234.549C514.94,229.122 508.91,219.803 508.91,219.803L520,211.313L520,214.283L528,211.231C528,211.231 529.257,215.192 530.553,217.71C531.85,220.228 533.999,224.224 537.87,230.521C540.159,234.246 540.798,239.438 538.628,243.91C536.575,248.142 535.719,251.609 534.607,254.103C533.188,257.286 536,258.055 536,258.055Z" style="fill:none;stroke:white;stroke-width:0.91px;"/>
                        <path d="M536,258.055C536,258.055 536.136,259.114 528,259.611C519.864,260.108 517.289,257.966 517.289,257.966C517.289,257.966 514.056,246.372 517.076,242.731C520.096,239.089 518.837,236.821 520,234.549C514.94,229.122 508.91,219.803 508.91,219.803L520,211.313L520,214.283L528,211.231C528,211.231 529.257,215.192 530.553,217.71C531.85,220.228 533.999,224.224 537.87,230.521C540.159,234.246 540.798,239.438 538.628,243.91C536.575,248.142 535.719,251.609 534.607,254.103C533.188,257.286 536,258.055 536,258.055Z"/>
                    </g>
                </g>
                <g transform="matrix(0.688922,0,0,0.807546,125.606,41.945)">
                    <g transform="matrix(24,0,0,24,505.523,292.584)">
                    </g>
                    <text x="431.291px" y="292.584px" style="font-family:'HelveticaNeue-CondensedBlack', 'Helvetica Neue';font-weight:900;font-stretch:condensed;font-size:24px;">Kicking</text>
                </g>
            </g>
        </g>
    </g>
</svg>
